<svg xmlns="http://www.w3.org/2000/svg" viewBox="0 0 202.85 65.67"><defs><style>.cls-1{fill:#5bba47;}</style></defs><title>Asset 1</title><g id="Layer_2" data-name="Layer 2"><g id="Layer_1-2" data-name="Layer 1"><path class="cls-1" d="M7.26,38.56c.48-.45.84-1.61.85-3.8V7.87c0-2.14-.37-3.31-.88-3.81-.85-.82-3.34-1-4.44-1V.71H21.11V3c-1.14.06-3.6.17-4.55.88-.63.49-1.06,1.57-1.06,3.56v29c0,1.12.43,1.58,1.29,1.69a38.05,38.05,0,0,0,4.18.15c5,0,8.21-.33,9.71-.93,3-1.22,5-4.49,6.28-7.19h2.73l-3.3,11.7H2.79V39.67c1-.11,3.7-.36,4.47-1.11Z"/><path class="cls-1" d="M58.23,14.29c-1.1.06-3.75.17-4.63.73-.53.34-.92,1.18-.92,2.75V31.62a8.89,8.89,0,0,0,1.24,5.11C55.38,38.85,58.18,40,62.55,40c4.79,0,7.85-1.14,9.4-3.32.88-1.23,1.35-3.18,1.35-5.93V19.44c0-2-.28-3.25-.71-3.79-.92-1.07-3.46-1.26-5-1.37V12.64H82.85v1.64c-1.49.11-4.06.32-5,1.4-.43.5-.71,1.7-.71,3.76V30.71a11.69,11.69,0,0,1-2,7.21c-2.51,3.27-7.25,4.86-14,4.86-11,0-16.33-4.18-16.33-11.48V12.64H58.23v1.65Z"/><path class="cls-1" d="M111.9,1c2.56.66,9.51,3.28,9.51,3.28V14.8h-2.48c-1.93-6.47-5.4-11.18-12.7-11.19A11.86,11.86,0,0,0,95.62,9.38a22.7,22.7,0,0,0-3.18,12.45A19.28,19.28,0,0,0,96,33.77,12.72,12.72,0,0,0,106.79,39a16.63,16.63,0,0,0,8.34-2.17,27.66,27.66,0,0,0,5.3-4.15l1.93,1.92a20.34,20.34,0,0,1-5.48,5,20.6,20.6,0,0,1-11.33,3.34c-6.64,0-12-2.12-15.92-6.42a21.09,21.09,0,0,1-5.44-14.79C84.19,9.12,93,0,105.67,0a26.15,26.15,0,0,1,6.23,1Z"/><path class="cls-1" d="M151.9,1c2.56.66,9.51,3.28,9.51,3.28V14.8h-2.48c-1.93-6.47-5.4-11.18-12.7-11.19a11.86,11.86,0,0,0-10.61,5.77,22.7,22.7,0,0,0-3.18,12.45A19.28,19.28,0,0,0,136,33.77,12.72,12.72,0,0,0,146.79,39a16.63,16.63,0,0,0,8.34-2.17,27.66,27.66,0,0,0,5.3-4.15l1.93,1.92a20.34,20.34,0,0,1-5.48,5,20.6,20.6,0,0,1-11.33,3.34c-6.64,0-12-2.12-15.92-6.42a21.09,21.09,0,0,1-5.44-14.79C124.19,9.12,133,0,145.67,0a26.15,26.15,0,0,1,6.23,1Z"/><path class="cls-1" d="M49.6.71A3.56,3.56,0,1,1,46,4.27,3.56,3.56,0,0,1,49.6.71Z"/><path class="cls-1" d="M184.23,11.32s-11,25.75-11,26.24a1.54,1.54,0,0,0,.89,1.57,12.27,12.27,0,0,0,3.24.52v2.27H164.2V39.67c2.46-.28,3.74-1.43,5-3.59L184.5,0h2.32l15.24,36.45C215.37,65.67,56.67,65.67,56.67,65.67,37.06,52.48-12.19,46.28,2.79,48.36c100.48,14,201.51,11.87,191.35-13l-9.91-24Z"/><path class="cls-1" d="M74.16.71A3.56,3.56,0,1,1,70.6,4.27,3.56,3.56,0,0,1,74.16.71Z"/></g></g></svg>